<svg width="512" height="512" viewBox="0 0 512 512" fill="none" xmlns="http://www.w3.org/2000/svg">
  <rect width="512" height="512" rx="128" fill="black"/>
  <path d="M256 128C185.308 128 128 185.308 128 256C128 326.692 185.308 384 256 384C326.692 384 384 326.692 384 256C384 185.308 326.692 128 256 128ZM256 344C207.399 344 168 304.601 168 256C168 207.399 207.399 168 256 168C304.601 168 344 207.399 344 256C344 304.601 304.601 344 256 344Z" fill="white"/>
  <rect x="236" y="216" width="40" height="80" rx="20" fill="white"/>
</svg>
